<svg width="14" height="13" viewBox="0 0 14 13" fill="none" xmlns="http://www.w3.org/2000/svg">
<path d="M7.00016 12.2333L6.0335 11.3667C4.91127 10.3556 3.9835 9.48333 3.25016 8.75C2.51683 8.01667 1.9335 7.35822 1.50016 6.77467C1.06683 6.19156 0.764163 5.65556 0.592163 5.16667C0.419718 4.67778 0.333496 4.17778 0.333496 3.66667C0.333496 2.62222 0.683496 1.75 1.3835 1.05C2.0835 0.35 2.95572 0 4.00016 0C4.57794 0 5.12794 0.122222 5.65016 0.366667C6.17238 0.611111 6.62238 0.955555 7.00016 1.4C7.37794 0.955555 7.82794 0.611111 8.35016 0.366667C8.87238 0.122222 9.42238 0 10.0002 0C11.0446 0 11.9168 0.35 12.6168 1.05C13.3168 1.75 13.6668 2.62222 13.6668 3.66667C13.6668 4.17778 13.5808 4.67778 13.4088 5.16667C13.2364 5.65556 12.9335 6.19156 12.5002 6.77467C12.0668 7.35822 11.4835 8.01667 10.7502 8.75C10.0168 9.48333 9.08905 10.3556 7.96683 11.3667L7.00016 12.2333ZM7.00016 10.4333C8.06683 9.47778 8.94461 8.65822 9.6335 7.97467C10.3224 7.29156 10.8668 6.69733 11.2668 6.192C11.6668 5.68622 11.9446 5.236 12.1002 4.84133C12.2557 4.44711 12.3335 4.05556 12.3335 3.66667C12.3335 3 12.1113 2.44444 11.6668 2C11.2224 1.55556 10.6668 1.33333 10.0002 1.33333C9.47794 1.33333 8.99461 1.48044 8.55016 1.77467C8.10572 2.06933 7.80016 2.44444 7.6335 2.9H6.36683C6.20016 2.44444 5.89461 2.06933 5.45016 1.77467C5.00572 1.48044 4.52238 1.33333 4.00016 1.33333C3.3335 1.33333 2.77794 1.55556 2.3335 2C1.88905 2.44444 1.66683 3 1.66683 3.66667C1.66683 4.05556 1.74461 4.44711 1.90016 4.84133C2.05572 5.236 2.3335 5.68622 2.7335 6.192C3.1335 6.69733 3.67794 7.29156 4.36683 7.97467C5.05572 8.65822 5.9335 9.47778 7.00016 10.4333Z" fill="#D1D1D1"/>
</svg>
